<svg width="21" height="21" viewBox="0 0 21 21" fill="none" xmlns="http://www.w3.org/2000/svg">
<circle cx="10.7158" cy="10.2993" r="10" fill="#2DA7AD"/>
<path fill-rule="evenodd" clip-rule="evenodd" d="M10.7161 15.9613C8.93527 13.8561 5.72168 10.6475 5.72168 7.95772C5.72168 5.20008 7.95776 2.9646 10.7161 2.9646C13.4744 2.9646 15.7105 5.20008 15.7105 7.95772C15.7105 10.6475 12.4969 13.8561 10.7161 15.9613ZM8.84526 7.87969L9.06105 7.72294V9.68169C9.06105 9.9617 9.29023 10.1908 9.57029 10.1908H10.2224V8.50671C10.2224 8.37499 10.3303 8.26723 10.462 8.26723H10.9701C11.1019 8.26723 11.2097 8.37501 11.2097 8.50671V10.1908H11.8618C12.1419 10.1908 12.3711 9.9617 12.3711 9.68169V7.72294L12.5868 7.87969C12.7461 7.99506 12.9688 7.95953 13.0842 7.80032C13.1996 7.64108 13.1641 7.41846 13.0048 7.30309L10.9312 5.79689C10.8095 5.70465 10.6372 5.69817 10.5071 5.79243L8.42733 7.30309C8.26808 7.41846 8.23251 7.64108 8.34793 7.80032C8.46333 7.95953 8.68601 7.99506 8.84526 7.87969ZM10.7161 4.35479C8.72572 4.35479 7.11222 5.96788 7.11222 7.9577C7.11222 9.94754 8.72572 11.5606 10.7161 11.5606C12.7064 11.5606 14.3199 9.94754 14.3199 7.9577C14.3199 5.96788 12.7064 4.35479 10.7161 4.35479Z" fill="white"/>
</svg>
