<svg width="21" height="20" viewBox="0 0 21 20" fill="none" xmlns="http://www.w3.org/2000/svg">
<path d="M7.59733 11.6667C7.36122 11.6667 7.16316 11.5867 7.00316 11.4267C6.84372 11.2672 6.764 11.0695 6.764 10.8334C6.764 10.5972 6.84372 10.3992 7.00316 10.2392C7.16316 10.0797 7.36122 10 7.59733 10C7.83344 10 8.0315 10.0797 8.1915 10.2392C8.35094 10.3992 8.43066 10.5972 8.43066 10.8334C8.43066 11.0695 8.35094 11.2672 8.1915 11.4267C8.0315 11.5867 7.83344 11.6667 7.59733 11.6667ZM10.9307 11.6667C10.6946 11.6667 10.4968 11.5867 10.3373 11.4267C10.1773 11.2672 10.0973 11.0695 10.0973 10.8334C10.0973 10.5972 10.1773 10.3992 10.3373 10.2392C10.4968 10.0797 10.6946 10 10.9307 10C11.1668 10 11.3648 10.0797 11.5248 10.2392C11.6843 10.3992 11.764 10.5972 11.764 10.8334C11.764 11.0695 11.6843 11.2672 11.5248 11.4267C11.3648 11.5867 11.1668 11.6667 10.9307 11.6667ZM14.264 11.6667C14.0279 11.6667 13.8301 11.5867 13.6707 11.4267C13.5107 11.2672 13.4307 11.0695 13.4307 10.8334C13.4307 10.5972 13.5107 10.3992 13.6707 10.2392C13.8301 10.0797 14.0279 10 14.264 10C14.5001 10 14.6979 10.0797 14.8573 10.2392C15.0173 10.3992 15.0973 10.5972 15.0973 10.8334C15.0973 11.0695 15.0173 11.2672 14.8573 11.4267C14.6979 11.5867 14.5001 11.6667 14.264 11.6667ZM5.09733 18.3334C4.639 18.3334 4.2465 18.1703 3.91983 17.8442C3.59372 17.5175 3.43066 17.125 3.43066 16.6667V5.00002C3.43066 4.54169 3.59372 4.14946 3.91983 3.82335C4.2465 3.49669 4.639 3.33335 5.09733 3.33335H5.93066V1.66669H7.59733V3.33335H14.264V1.66669H15.9307V3.33335H16.764C17.2223 3.33335 17.6148 3.49669 17.9415 3.82335C18.2676 4.14946 18.4307 4.54169 18.4307 5.00002V16.6667C18.4307 17.125 18.2676 17.5175 17.9415 17.8442C17.6148 18.1703 17.2223 18.3334 16.764 18.3334H5.09733ZM5.09733 16.6667H16.764V8.33335H5.09733V16.6667ZM5.09733 6.66669H16.764V5.00002H5.09733V6.66669Z" fill="#2DA7AD"/>
</svg>
