<svg width="25" height="25" viewBox="0 0 25 25" fill="none" xmlns="http://www.w3.org/2000/svg">
<g clip-path="url(#clip0_282_434)">
<path d="M18.4215 5.14071C18.4215 3.72054 19.5728 2.56929 20.9929 2.56929C22.4131 2.56929 23.5644 3.72054 23.5644 5.14071C23.5644 6.56089 22.4131 7.71214 20.9929 7.71214C19.5734 7.71068 18.4229 6.56028 18.4215 5.14071ZM10.2787 3.4264C10.2787 2.00623 11.4299 0.85498 12.8501 0.85498C14.2703 0.85498 15.4215 2.00623 15.4215 3.4264C15.4215 4.84657 14.2703 5.99782 12.8501 5.99782C11.4305 5.99642 10.2801 4.84596 10.2787 3.4264ZM11.7787 6.85498H13.9215C15.4236 6.82193 16.6693 8.01017 16.7073 9.51214V9.58972C16.4276 10.09 16.2801 10.6533 16.2787 11.2264V12.2366C15.9967 12.1968 15.7113 12.1603 15.4215 12.1299V9.42645C15.4215 9.18978 15.2297 8.99787 14.9929 8.99787C14.7563 8.99787 14.5644 9.18973 14.5644 9.42645V12.0579C14.0042 12.0197 13.4329 11.9979 12.8501 11.9979C12.2673 11.9979 11.6959 12.0197 11.1358 12.0579V9.42645C11.1358 9.18978 10.944 8.99787 10.7073 8.99787C10.4705 8.99787 10.2787 9.18973 10.2787 9.42645V12.1299C9.98894 12.1603 9.70352 12.1967 9.42152 12.2366V11.2264C9.4203 10.6532 9.27279 10.0896 8.99294 9.58929V9.51214C9.03086 8.01017 10.2766 6.82193 11.7787 6.85498ZM2.13583 5.14071C2.13583 3.72054 3.28708 2.56929 4.70725 2.56929C6.12743 2.56929 7.27868 3.72054 7.27868 5.14071C7.27868 6.56089 6.12743 7.71214 4.70725 7.71214C3.28764 7.71068 2.13724 6.56028 2.13583 5.14071ZM0.850098 11.2264C0.887973 9.72443 2.13377 8.5362 3.63583 8.56925H5.77868C6.76563 8.56203 7.6841 9.07301 8.19841 9.9154C8.4386 10.3105 8.56525 10.7641 8.56441 11.2264V12.3758C8.12425 12.4564 7.69441 12.5472 7.27868 12.6522V11.1407C7.27868 10.904 7.08682 10.7121 6.8501 10.7121C6.61343 10.7121 6.42152 10.9039 6.42152 11.1407V12.8901C5.21575 13.2399 4.06258 13.7503 2.99294 14.4077V11.1407C2.99294 10.904 2.80108 10.7121 2.56436 10.7121C2.32764 10.7121 2.13579 10.9039 2.13579 11.1407V14.7835C2.13489 14.891 2.10532 14.9964 2.05005 15.0887C1.93375 15.1847 1.82205 15.2824 1.71489 15.3818C1.64425 15.4101 1.56902 15.4252 1.49289 15.4264C1.13791 15.4264 0.850098 15.1386 0.850098 14.7836L0.850098 11.2264ZM12.8501 24.855C6.23336 24.855 0.850098 22.1636 0.850098 18.855C0.897535 17.7978 1.37805 16.8067 2.17868 16.1147C2.28925 16.008 2.40452 15.903 2.5271 15.7997C2.59446 15.7725 2.65352 15.7282 2.69852 15.6711C2.70236 15.666 2.70452 15.6604 2.70836 15.6553C3.98472 14.7117 5.43096 14.0228 6.96794 13.6264C6.98838 13.6223 7.00839 13.6166 7.02794 13.6093C8.92596 13.0974 10.8843 12.8437 12.8501 12.855C14.8159 12.8443 16.7743 13.0985 18.6723 13.611C18.6918 13.6182 18.7119 13.624 18.7323 13.6281C20.2685 14.0233 21.7143 14.7107 22.9905 15.6527C22.9939 15.6574 22.9965 15.663 23.0004 15.6677C23.0466 15.7283 23.1079 15.7758 23.1782 15.8053C23.2979 15.9059 23.4114 16.0086 23.5185 16.1134C24.3206 16.8052 24.8022 17.7969 24.8501 18.855C24.8501 22.1636 19.4668 24.855 12.8501 24.855ZM24.8501 14.7836C24.85 14.9542 24.7826 15.118 24.6624 15.2391C24.4801 15.412 24.2149 15.4651 23.9801 15.3759C23.8744 15.2779 23.764 15.1816 23.6488 15.087C23.5944 14.9951 23.5653 14.8904 23.5644 14.7836V11.1408C23.5644 10.9041 23.3726 10.7122 23.1358 10.7122C22.8992 10.7122 22.7073 10.904 22.7073 11.1408V14.4078C21.6376 13.7504 20.4844 13.24 19.2787 12.8902V11.1408C19.2787 10.9041 19.0868 10.7122 18.8501 10.7122C18.6134 10.7122 18.4215 10.904 18.4215 11.1408V12.6523C18.0058 12.5482 17.5759 12.4565 17.1358 12.3759V11.2265C17.1352 10.7626 17.2626 10.3075 17.5039 9.91123C18.0188 9.071 18.9361 8.56184 19.9215 8.56939H22.0644C23.5664 8.53634 24.8122 9.72457 24.8501 11.2265V14.7836Z" fill="#2DA7AD"/>
</g>
<defs>
<clipPath id="clip0_282_434">
<rect width="24" height="24" fill="white" transform="translate(0.850098 0.85498)"/>
</clipPath>
</defs>
</svg>
