<svg width="40" height="40" viewBox="0 0 40 40" fill="none" xmlns="http://www.w3.org/2000/svg">
<circle cx="20" cy="20" r="20" fill="white"/>
<path d="M19.9994 21.2167L15.7409 25.4753C15.5816 25.6346 15.3788 25.7143 15.1325 25.7143C14.8863 25.7143 14.6835 25.6346 14.5242 25.4753C14.3648 25.3159 14.2852 25.1132 14.2852 24.8669C14.2852 24.6207 14.3648 24.4179 14.5242 24.2585L18.7827 20L14.5242 15.7414C14.3648 15.5821 14.2852 15.3793 14.2852 15.1331C14.2852 14.8868 14.3648 14.684 14.5242 14.5247C14.6835 14.3654 14.8863 14.2857 15.1325 14.2857C15.3788 14.2857 15.5816 14.3654 15.7409 14.5247L19.9994 18.7833L24.258 14.5247C24.4173 14.3654 24.6201 14.2857 24.8664 14.2857C25.1126 14.2857 25.3154 14.3654 25.4747 14.5247C25.6341 14.684 25.7137 14.8868 25.7137 15.1331C25.7137 15.3793 25.6341 15.5821 25.4747 15.7414L21.2162 20L25.4747 24.2585C25.6341 24.4179 25.7137 24.6207 25.7137 24.8669C25.7137 25.1132 25.6341 25.3159 25.4747 25.4753C25.3154 25.6346 25.1126 25.7143 24.8664 25.7143C24.6201 25.7143 24.4173 25.6346 24.258 25.4753L19.9994 21.2167Z" fill="#2DA7AD"/>
</svg>
