<svg width="25" height="25" viewBox="0 0 25 25" fill="none" xmlns="http://www.w3.org/2000/svg">
<g clip-path="url(#clip0_282_605)">
<path d="M24.7158 12.3877C24.7158 5.75957 19.3439 0.387695 12.7158 0.387695C6.0877 0.387695 0.71582 5.75957 0.71582 12.3877C0.71582 19.0158 6.0877 24.3877 12.7158 24.3877C12.7861 24.3877 12.8564 24.3877 12.9268 24.383V15.0455H10.3486V12.0408H12.9268V9.82832C12.9268 7.26426 14.4924 5.86738 16.7799 5.86738C17.8768 5.86738 18.8189 5.94707 19.0908 5.98457V8.66582H17.5158C16.2736 8.66582 16.0299 9.25644 16.0299 10.1236V12.0361H19.0064L18.6174 15.0408H16.0299V23.9236C21.0455 22.4846 24.7158 17.8674 24.7158 12.3877Z" fill="#2DA7AD"/>
</g>
<defs>
<clipPath id="clip0_282_605">
<rect width="24" height="24" fill="white" transform="translate(0.71582 0.387695)"/>
</clipPath>
</defs>
</svg>
