<svg width="104" height="104" viewBox="0 0 104 104" fill="none" xmlns="http://www.w3.org/2000/svg">
<circle cx="52" cy="52" r="52" fill="#2DA7AD"/>
<path d="M75.9999 40.6957L75.9788 46.9111C75.9788 49.5942 70.6507 51.8378 63.5268 52.3913C62.5085 52.6406 61.0128 51.7955 56.3142 49.6153C53.5255 48.3223 44.6228 47.9716 44.6228 47.9716C44.3368 47.5749 44.1775 47.1004 44.1665 46.6111V40.6957H44.1707C44.289 43.759 51.3622 46.2308 60.0705 46.2308C68.7789 46.2308 75.8562 43.759 75.9745 40.6957H75.9999Z" fill="white"/>
<path d="M60.0702 37.1508C52.4393 37.1508 47.1196 38.9761 47.1196 40.6155C47.1196 42.2507 52.4393 44.076 60.0702 44.076C67.7053 44.076 73.0249 42.2507 73.0249 40.6155C73.0249 38.9761 67.7053 37.1508 60.0702 37.1508ZM59.9434 42.3859L56.1406 40.6958L59.9434 39.0057L63.7462 40.6958L59.9434 42.3859Z" fill="white"/>
<path d="M60.0705 35C51.2861 35 44.1665 37.5141 44.1665 40.6154C44.1665 43.7168 51.2861 46.2308 60.0705 46.2308C68.8549 46.2308 75.9788 43.7168 75.9788 40.6154C75.9788 37.5141 68.8549 35 60.0705 35ZM60.0705 44.921C53.3819 44.921 46.2749 43.4126 46.2749 40.6154C46.2749 37.8183 53.3819 36.3056 60.0705 36.3056C66.7592 36.3056 73.8703 37.8183 73.8703 40.6154C73.8703 43.4126 66.7592 44.921 60.0705 44.921Z" fill="white"/>
<path d="M65.1826 55.535V62.2955C65.1826 66.4025 56.825 69.4743 46.5955 69.4743C36.3661 69.4743 28 66.4025 28 62.2955V55.535C28 59.735 36.3238 63.1406 46.5913 63.1406C56.8588 63.1406 65.1826 59.735 65.1826 55.535Z" fill="white"/>
<path d="M46.5914 50.4645C37.4944 50.4645 31.3804 53.0842 31.3804 55.5348C31.3804 57.9813 37.4944 60.6052 46.5914 60.6052C55.6885 60.6052 61.8025 57.9813 61.8025 55.5348C61.8025 53.0842 55.6885 50.4645 46.5914 50.4645ZM49.8365 57.0559H42.9323V53.8701H49.8365V57.0559Z" fill="white"/>
<path d="M46.5913 47.9294C36.3238 47.9294 28 51.335 28 55.535C28 59.7349 36.3238 63.1405 46.5913 63.1405C56.8588 63.1405 65.1826 59.7349 65.1826 55.535C65.1826 51.335 56.8588 47.9294 46.5913 47.9294ZM46.5913 61.4504C37.5872 61.4504 30.5352 58.8518 30.5352 55.535C30.5352 52.2181 37.5872 49.6196 46.5913 49.6196C55.5954 49.6196 62.6474 52.2181 62.6474 55.535C62.6474 58.8518 55.5954 61.4504 46.5913 61.4504Z" fill="white"/>
</svg>
