<svg width="104" height="104" viewBox="0 0 104 104" fill="none" xmlns="http://www.w3.org/2000/svg">
<circle cx="52" cy="52" r="52" fill="#2DA7AD"/>
<path d="M40.1099 69.3615C38.2597 75.6967 29.5361 72.5794 30.8294 66.5417C31.4654 63.7058 34.0217 61.7176 36.9272 61.8003L36.7487 64.1859C36.7267 64.4804 36.9242 64.7463 37.2127 64.8105C39.2663 65.2722 40.5608 67.3056 40.1099 69.3615Z" fill="white"/>
<path d="M29.6696 66.2861C28.9195 69.73 31.0867 73.1346 34.524 73.9127C40.9252 75.2768 44.3631 66.2676 37.9685 63.7875L38.1113 61.9552C41.8734 62.8267 44.231 66.5669 43.394 70.3374C41.5177 78.0872 31.7054 78.6868 27.6113 72.3541C21.1483 61.8422 35.618 52.0453 44.6671 59.296L43.9949 65.364C41.0816 58.9069 31.446 58.9706 29.6696 66.2861Z" fill="white"/>
<path d="M68.3637 56.5656C62.1351 61.6276 56.543 64.9448 50.4869 57.1724C48.7736 55.2389 47.0008 53.246 44.3297 52.0741C36.8399 48.8021 30.7124 52.312 28.2197 54.1741L30.7719 39.9976C30.8403 39.9506 30.8956 39.8875 30.9325 39.8131C30.9801 39.7298 35.2753 31.7998 42.9019 31.7998C46.156 31.7998 51.3555 35.1432 55.5436 39.9262C60.0041 45.0965 62.3379 52.6422 68.3637 56.5656Z" fill="white"/>
<path d="M50.3071 32.2934C43.9619 28.0095 36.4161 26.0713 31.9663 36.2673C34.0663 33.7687 37.7428 30.6098 42.9006 30.6098C46.5295 30.6098 51.9728 34.0365 56.4346 39.1407C61.0701 44.4556 63.3354 52.269 69.6711 55.9764C69.9549 56.1424 70.0501 56.5065 69.8841 56.7903C69.8526 56.8444 69.8127 56.8926 69.7663 56.9342C69.1768 57.5256 62.1581 63.4615 57.9992 62.9784C51.0507 62.8773 49.5528 55.5832 43.8524 53.1685C35.1787 49.373 28.4861 55.4172 27.8971 55.9824L27.6592 57.3031C30.4052 54.8979 33.8729 53.4749 37.5167 53.2577C45.4955 53.0596 50.4415 59.3852 54.4238 65.4532C58.5465 71.6735 62.4133 76.629 69.2785 74.7456L72.4136 41.2824C63.2522 38.992 55.8159 35.9699 50.3071 32.2934ZM67.5236 70.379L66.4646 70.8192L66.0303 71.8782C65.9066 72.1798 65.5616 72.3243 65.2594 72.2006C65.2588 72.2 65.2576 72.2 65.257 72.1994L64.198 71.7651C63.7638 71.9067 62.9963 72.3927 62.687 72.2054C62.3342 72.1239 62.1212 71.2089 61.9255 70.8311L60.8666 70.3969C60.5632 70.2731 60.4169 69.9275 60.5394 69.6235L60.9737 68.5646C60.863 68.2076 60.3449 67.3748 60.5335 67.0535C60.6132 66.7055 61.5686 66.4723 61.9077 66.292L62.3479 65.2331C62.4728 64.9309 62.8173 64.7857 63.1213 64.9059L64.1802 65.3402C64.555 65.2212 65.3658 64.7138 65.6912 64.9C66.0428 64.988 66.2701 65.9327 66.4527 66.2801L67.5117 66.7144C67.8127 66.8405 67.956 67.1856 67.8329 67.4878L67.3986 68.5467L67.8388 69.5997C67.9685 69.8983 67.8311 70.2458 67.5325 70.3754C67.5295 70.3766 67.5265 70.3778 67.5236 70.379ZM70.034 46.2022L69.1298 46.577L68.755 47.4872C68.4159 48.2308 67.5735 47.5996 67.0714 47.4396C66.7056 47.6121 66.3254 47.7537 65.9352 47.862C65.3307 47.8745 65.2469 47.0481 65.0071 46.5889C64.7346 46.4366 63.8732 46.2516 63.7757 45.8928C63.593 45.5853 64.0535 44.847 64.1445 44.5305L63.7697 43.6263C63.64 43.3276 63.7775 42.9802 64.0761 42.8505C64.0791 42.8493 64.082 42.8481 64.085 42.8469L64.9952 42.4662L65.37 41.562C65.4937 41.2586 65.8394 41.1122 66.1434 41.2348L67.0536 41.6096L67.9578 41.2288C68.2606 41.1021 68.6092 41.2449 68.7366 41.5477C68.7366 41.5483 68.7372 41.5489 68.7372 41.5501L69.1179 42.4543L70.0221 42.8291C70.3267 42.9522 70.4743 43.2985 70.3517 43.6031C70.3511 43.6049 70.3505 43.6066 70.3493 43.6084L69.9745 44.5127L70.3553 45.4229C70.4761 45.7269 70.3339 46.0713 70.034 46.2022Z" fill="white"/>
<path d="M66.512 69.5108L65.7803 69.8142C65.4412 69.9213 65.2972 70.6013 65.1556 70.8731C64.8647 70.7732 64.2775 70.4079 63.9658 70.5757L63.2341 70.8791C63.0877 70.6078 62.945 69.9273 62.6035 69.8261L61.8658 69.5227L62.1692 68.791C62.3376 68.4769 61.955 67.8909 61.8599 67.6012C62.1335 67.4554 62.8153 67.3133 62.9188 66.9706L63.2222 66.2329L63.9539 66.5363C64.2668 66.7035 64.8534 66.3263 65.1437 66.2329L65.4471 66.9646C65.5548 67.2996 66.2342 67.4501 66.506 67.5893L66.2026 68.321C66.0379 68.6322 66.421 69.2193 66.512 69.5108Z" fill="white"/>
<path d="M69.028 45.334C68.7615 45.4613 68.2255 45.5767 68.1178 45.8991L67.8798 46.4821C67.605 46.3887 67.1326 46.0913 66.8388 46.2442L66.2498 46.4881C66.1213 46.2269 66.0053 45.6802 65.6847 45.5838L65.1017 45.3399C65.1986 45.0633 65.4919 44.5963 65.3396 44.2988L65.0957 43.7158C65.3563 43.5897 65.9036 43.4672 66 43.1507L66.2439 42.5617L66.8269 42.8056C67.1243 42.9597 67.5943 42.6492 67.8679 42.5558L68.1119 43.1447C68.2106 43.46 68.7627 43.5826 69.0221 43.7039L68.7781 44.2929C68.6235 44.585 68.9376 45.0621 69.028 45.334Z" fill="white"/>
<path d="M77.0915 41.1837C77.0428 41.1837 76.994 41.1777 76.9464 41.1658L74.5668 40.5709C74.2485 40.4888 74.0575 40.1646 74.1396 39.8463C74.2211 39.5316 74.54 39.3401 74.8559 39.4168L77.2355 40.0117C77.5544 40.0914 77.7477 40.4145 77.668 40.7333C77.602 40.9981 77.364 41.1831 77.0915 41.1837Z" fill="white"/>
<path d="M77.9817 43.2458C77.9026 43.5641 77.5808 43.7586 77.2619 43.6801L75.1797 43.1548C74.7794 43.081 74.3885 42.9638 74.0137 42.8038C73.7645 42.5867 73.7389 42.2083 73.956 41.9597C74.1 41.7943 74.3231 41.7211 74.5373 41.7687L75.2928 41.9591L77.5457 42.526C77.8645 42.6039 78.0603 42.9264 77.9817 43.2458Z" fill="white"/>
<path d="M77.4048 47.2677C77.356 47.2677 77.3072 47.2617 77.2596 47.2498L74.0614 46.439C73.7431 46.3569 73.5522 46.0321 73.6343 45.7144C73.7158 45.3997 74.0346 45.2081 74.3505 45.2849L77.5493 46.0957C77.8682 46.1754 78.0615 46.4985 77.9818 46.8173C77.9152 47.0821 77.6778 47.2677 77.4048 47.2677Z" fill="white"/>
<path d="M77.3869 50.3846C77.3077 50.7028 76.9859 50.8974 76.667 50.8189L74.6622 50.3108C74.4284 50.2204 73.6426 50.146 73.5022 49.9063C73.2898 49.6552 73.3213 49.2798 73.5718 49.0681C73.7151 48.9467 73.9079 48.9003 74.0911 48.9425L74.7752 49.1151L76.9526 49.6647C77.2709 49.7439 77.4654 50.0657 77.3869 50.3846Z" fill="white"/>
<path d="M76.81 55.001C76.7612 55.001 76.7124 54.9951 76.6648 54.9832L73.1454 54.1086C72.8271 54.0265 72.6362 53.7017 72.7183 53.3841C72.7998 53.0694 73.1186 52.8778 73.4345 52.9545L76.9546 53.829C77.2734 53.9088 77.4668 54.2318 77.387 54.5507C77.3204 54.8154 77.0831 55.001 76.81 55.001Z" fill="white"/>
<path d="M76.7916 58.1185C76.7125 58.4367 76.3907 58.6313 76.0718 58.5527L73.7196 57.9608C73.3912 57.8519 72.6803 57.8186 72.5773 57.4016C72.4661 57.0922 72.6261 56.7514 72.9355 56.6401C73.0461 56.6003 73.1657 56.5943 73.2793 56.6223L73.8326 56.7591L76.3573 57.3986C76.6756 57.4777 76.8702 57.7996 76.7916 58.1185Z" fill="white"/>
<path d="M76.2154 62.14C76.1666 62.14 76.1178 62.1341 76.0702 62.1222L72.8643 61.322C72.543 61.2536 72.3378 60.9377 72.4062 60.6165C72.4746 60.2952 72.7905 60.09 73.1118 60.1584C73.1255 60.1614 73.1391 60.165 73.1528 60.1685L76.3593 60.9681C76.6782 61.0478 76.8716 61.3708 76.7918 61.6897C76.7258 61.9544 76.4878 62.1394 76.2154 62.14Z" fill="white"/>
<path d="M75.6207 66.3038C75.5719 66.3038 75.5231 66.2978 75.4755 66.2859L72.4552 65.5304C72.1351 65.456 71.9358 65.1366 72.0102 64.8165C72.0846 64.4964 72.404 64.2972 72.7241 64.3715C72.7306 64.3733 72.7372 64.3745 72.7437 64.3763L75.7652 65.133C76.0835 65.2157 76.2744 65.5399 76.1918 65.8582C76.1245 66.1187 75.8901 66.3014 75.6207 66.3038Z" fill="white"/>
<path d="M75.6022 69.4213C75.523 69.7396 75.2012 69.9341 74.8823 69.8556L72.6485 69.2946C72.4105 69.2042 71.633 69.1281 71.4825 68.8901C71.2695 68.6402 71.2992 68.2648 71.5491 68.0513C71.6948 67.9269 71.8918 67.8805 72.0774 67.9264L72.7615 68.0989L75.1679 68.7015C75.4861 68.7806 75.6807 69.1025 75.6022 69.4213Z" fill="white"/>
<path d="M74.9781 39.4264C67.7739 38.0403 53.8651 31.9544 46.3276 27.451C41.9218 24.6949 36.1197 25.9787 33.2874 30.3363C32.6395 31.3578 32.1648 32.4797 31.8834 33.6559C37.1566 24.9762 44.6316 27.0406 50.9619 31.306C56.4588 34.9646 63.9367 37.9749 73.1934 40.2533C73.4796 40.3229 73.6717 40.5906 73.6455 40.8839L70.4212 75.2752C70.398 75.5209 70.2249 75.7273 69.9869 75.7928C68.7989 76.1235 67.5734 76.2996 66.3401 76.3163C53.686 76.1378 52.3296 54.1074 37.5171 54.4477C35.0239 54.4322 29.486 56.1997 27.2432 59.5876C27.2432 59.5936 27.0469 60.6704 27.0469 60.6763C30.0523 56.8309 34.9371 54.9611 39.7421 55.816C45.59 56.7619 49.082 61.8661 52.4551 66.7979C57.0835 73.5619 61.4619 79.9511 71.492 76.578L74.9781 39.4264Z" fill="white"/>
<path d="M73.7323 76.3163H71.3527C71.0243 76.3163 70.7578 76.0498 70.7578 75.7214C70.7578 75.393 71.0243 75.1265 71.3527 75.1265H73.7323C74.0607 75.1265 74.3272 75.393 74.3272 75.7214C74.3272 76.0498 74.0607 76.3163 73.7323 76.3163Z" fill="white"/>
<path d="M75.0068 73.5858C74.9277 73.9041 74.6058 74.0986 74.287 74.0201C73.6326 73.8523 72.1572 73.4787 71.5177 73.3217C71.2018 73.2306 71.0204 72.9005 71.1114 72.5852C71.1976 72.2865 71.4993 72.1051 71.8033 72.1676L74.5725 72.866C74.8908 72.9451 75.0853 73.2669 75.0068 73.5858Z" fill="white"/>
</svg>
