<svg width="48" height="48" viewBox="0 0 48 48" fill="none" xmlns="http://www.w3.org/2000/svg">
<circle cx="24" cy="24" r="24" fill="white"/>
<path d="M21.9347 16.7738C22.2664 16.9654 22.7003 16.8514 22.8947 16.5156C22.8947 16.5156 22.8947 16.5156 22.8954 16.5149C23.0872 16.182 22.9774 15.7526 22.6379 15.5557C22.2913 15.3573 21.866 15.4836 21.6773 15.8125C21.4829 16.1483 21.599 16.5795 21.9347 16.7738Z" fill="#2DA7AD"/>
<path d="M25.1422 21.0598C25.4804 21.2536 25.9086 21.138 26.1029 20.8024L28.2122 17.1497C28.4066 16.8133 28.2912 16.3836 27.9547 16.1893L19.43 11.4073C19.0935 11.2124 18.663 11.3277 18.4694 11.6647L16.36 15.3168C16.1657 15.6532 16.281 16.0829 16.6175 16.2771L25.1422 21.0598ZM20.4593 15.1095C21.0435 14.098 22.3329 13.7566 23.3411 14.3379C24.3462 14.9181 24.6978 16.2057 24.1129 17.2183V17.219C23.5312 18.2247 22.2384 18.571 21.2317 17.9906C20.2238 17.4085 19.8777 16.1158 20.4593 15.1095Z" fill="#2DA7AD"/>
<path d="M25.7578 26.4727C24.993 26.4727 24.7077 27.2723 24.6728 27.3799C24.5868 27.6817 24.3142 27.89 24 27.89C23.6858 27.89 23.4132 27.6817 23.3272 27.3799C23.2923 27.2723 23.007 26.4727 22.2422 26.4727C21.5498 26.4727 21.1875 27.0049 21.1875 27.5306C21.1875 28.2704 21.9873 28.9278 23.5199 30.1215C23.6765 30.2435 23.8359 30.3677 24 30.4966C24.1641 30.3677 24.3235 30.2435 24.4801 30.1215C26.0128 28.9277 26.8125 28.2703 26.8125 27.5306C26.8125 27.0049 26.4502 26.4727 25.7578 26.4727Z" fill="#2DA7AD"/>
<path d="M33.8437 16.936H29.7004C29.6795 17.2555 29.594 17.5692 29.4286 17.8546L27.5236 21.1537H29.625C30.0136 21.1537 30.3281 21.4681 30.3281 21.8567C30.3281 22.2452 30.0136 22.5596 29.625 22.5596H18.375C17.9864 22.5596 17.6719 22.2452 17.6719 21.8567C17.6719 21.4681 17.9864 21.1537 18.375 21.1537H22.4368L15.9292 17.5031C15.6714 17.3546 15.4573 17.1609 15.2872 16.936H14.1562C13.7676 16.936 13.4531 17.2504 13.4531 17.639V34.6034C13.4531 34.992 13.7676 35.3064 14.1562 35.3064H33.8437C34.2324 35.3064 34.5469 34.992 34.5469 34.6034V17.639C34.5469 17.2504 34.2324 16.936 33.8437 16.936ZM25.3445 31.2305C25.0552 31.4558 24.7562 31.6887 24.4392 31.9422C24.3108 32.0449 24.1554 32.0963 24 32.0963C23.8446 32.0963 23.6892 32.0449 23.5608 31.9422C23.2438 31.6887 22.9447 31.4558 22.6555 31.2305C20.9869 29.9308 19.7812 28.9917 19.7812 27.5307C19.7812 26.149 20.8622 25.0668 22.2422 25.0668C22.9249 25.0668 23.5276 25.3308 24 25.8336C24.4724 25.3308 25.0751 25.0668 25.7578 25.0668C27.1378 25.0668 28.2187 26.149 28.2187 27.5307C28.2187 28.9917 27.0131 29.9308 25.3445 31.2305Z" fill="#2DA7AD"/>
</svg>
