<svg width="105" height="104" viewBox="0 0 105 104" fill="none" xmlns="http://www.w3.org/2000/svg">
<circle cx="52.5" cy="52" r="52" fill="#2DA7AD"/>
<path d="M51.8216 56.5557C54.6266 56.5557 56.9006 54.2818 56.9006 51.4768C56.9006 48.6717 54.6266 46.3978 51.8216 46.3978C49.0166 46.3978 46.7427 48.6717 46.7427 51.4768C46.7427 54.2818 49.0166 56.5557 51.8216 56.5557Z" fill="white"/>
<path d="M80.6934 33.4391L70.2181 23.7383C69.7178 23.2748 68.9401 23.2894 68.4576 23.7719L67.7154 24.5147C67.2196 25.0106 67.2196 25.8143 67.7154 26.3101C67.7269 26.3216 67.7383 26.3324 67.7503 26.3438L67.89 26.4708C66.1924 28.0198 64.3316 29.3797 62.34 30.5263C59.8005 31.796 53.9788 30.9167 50.9124 31.796C46.6708 33.0124 41.0294 38.1447 37.2202 42.5888C33.411 47.0328 37.2202 48.9374 39.1248 47.0328C41.0294 45.1282 49.0078 39.4144 52.817 38.7796C54.1502 38.5574 58.0718 38.97 60.2329 39.229C60.6614 39.0545 61.1026 38.911 61.5515 38.7986L66.6304 37.5289C66.972 37.4495 67.3129 37.6622 67.3923 38.0038C67.4697 38.3371 67.2691 38.6716 66.9384 38.7605L61.8594 40.0303C58.967 40.7534 57.4471 42.5881 56.9906 44.0629C56.8281 44.4248 56.8071 44.8337 56.9322 45.2101C57.5601 45.52 58.932 45.0743 60.3852 44.6026C61.1211 44.3639 61.9559 44.0947 62.8212 43.8775C63.5939 43.6871 64.7176 43.4331 65.9442 43.1576C68.5135 42.5824 72.0332 41.7939 72.849 41.3857C73.5905 41.0156 76.057 37.8806 77.7228 35.5792L78.225 36.0446C78.7253 36.508 79.503 36.4934 79.9855 36.0109L80.7283 35.2681C81.2241 34.7723 81.2241 33.9685 80.7283 33.4727C80.7169 33.4613 80.7055 33.4499 80.6934 33.4391Z" fill="white"/>
<path d="M68.3279 56.5555C66.4233 58.4601 57.5352 64.1739 53.726 64.8088C52.3927 65.031 48.4712 64.6183 46.3101 64.3593C45.8815 64.5339 45.4409 64.678 44.9915 64.7897L39.9125 66.0595C39.5741 66.1521 39.225 65.9534 39.1323 65.615C39.0396 65.2767 39.2383 64.9275 39.5767 64.8348C39.5862 64.8323 39.5957 64.8297 39.6052 64.8278L44.6842 63.5581C47.576 62.835 49.0959 61.0002 49.553 59.5254C49.7149 59.1635 49.7358 58.7547 49.6114 58.3782C48.9829 58.069 47.6109 58.5147 46.1577 58.9858C45.4219 59.2245 44.587 59.4937 43.7217 59.7108C42.9491 59.9012 41.826 60.1552 40.5988 60.4307C38.0295 61.0059 34.5098 61.7944 33.694 62.2026C32.9226 62.588 29.7845 66.2442 27.7072 68.8281L26.6762 68.0314C26.1708 67.6403 25.4534 67.686 25.0014 68.138L24.2726 68.8675C23.7761 69.3627 23.7748 70.1664 24.27 70.6629C24.3087 70.7016 24.35 70.7384 24.3938 70.7721L36.335 79.9973C36.841 80.3884 37.5584 80.3421 38.0098 79.89L38.7386 79.1612C39.2351 78.666 39.2364 77.8623 38.7412 77.3658C38.7025 77.3271 38.6612 77.2903 38.6174 77.2566L38.3819 77.075C40.2001 75.5685 42.1479 74.2258 44.203 73.062C46.7424 71.7923 52.5642 72.6716 55.6306 71.7923C59.8721 70.5759 66.4233 65.4436 70.2325 60.9996C74.0417 56.5555 70.2325 54.6509 68.3279 56.5555Z" fill="white"/>
</svg>
