<svg width="104" height="104" viewBox="0 0 104 104" fill="none" xmlns="http://www.w3.org/2000/svg">
<circle cx="52" cy="52" r="52" fill="#2DA7AD"/>
<path d="M68.5048 38.6361V50.3158L63.4114 55.4091C63.4782 54.8846 63.405 54.3512 63.2007 53.8636C62.8992 53.1546 62.1404 52.7559 61.3858 52.9093L61.1106 52.9503C59.77 53.1727 58.3122 53.4186 56.7959 53.5825V38.6361H68.5048Z" fill="white"/>
<path d="M55.625 38.6361V53.6879C53.5174 53.8905 51.391 53.7558 49.3256 53.2898C49.0855 53.2313 48.8396 53.1786 48.5996 53.1318V38.6361H55.625Z" fill="white"/>
<path d="M47.4286 38.6361V52.962C43.6642 52.599 40.0403 53.9806 37.0604 56.9547C36.633 57.3821 36.1822 57.786 35.7197 58.1666V38.6361H47.4286Z" fill="white"/>
<path d="M69.6737 31.6172L57.9666 31.6149V38.6402L69.672 38.6431C70.9652 38.6437 72.0137 37.5952 72.0143 36.3019L72.0149 33.9602C72.0149 32.6663 70.967 31.6178 69.6737 31.6172Z" fill="white"/>
<path d="M47.4287 31.6138H56.7958V38.6391H47.4287V31.6138Z" fill="white"/>
<path d="M46.2577 31.6119L34.5471 31.609C33.2538 31.609 32.2053 32.657 32.2047 33.9502L32.2041 36.292C32.2041 37.5852 33.252 38.6338 34.5453 38.6344L46.2577 38.6373V31.6119Z" fill="white"/>
<path d="M49.1032 28.6777C48.5739 29.132 48.2168 29.7538 48.0903 30.4399H46.937C45.9218 28.9207 44.1544 28.0817 42.3354 28.2562C41.4596 28.2135 40.6359 28.6719 40.2102 29.4388C40.0574 29.7497 39.9848 30.0939 39.9995 30.4399H35.2691C34.9412 28.5372 35.2222 26.8219 36.0653 25.7095C36.9259 24.5737 38.3836 24 40.3976 24C44.361 24 47.2883 26.5057 49.0446 28.6133C49.0628 28.6361 49.0821 28.6578 49.1032 28.6777Z" fill="white"/>
<path d="M54.9281 30.4399H49.2961C49.4185 30.05 49.6603 29.7081 49.987 29.4622C50.6093 29.0308 51.3557 28.8153 52.1121 28.8475C53.3006 28.8475 54.5534 29.2807 54.9281 30.4399Z" fill="white"/>
<path d="M68.9496 30.4399H64.2192C64.2338 30.0957 64.1612 29.7532 64.0084 29.4447C63.5828 28.6777 62.7591 28.2193 61.8832 28.2621C60.066 28.0782 58.2962 28.9172 57.2875 30.4399H56.1283C56.0024 29.7567 55.6471 29.1373 55.1213 28.6836C55.1389 28.6602 55.1623 28.6367 55.1799 28.6133C56.9304 26.5116 59.8576 24.0059 63.8211 24.0059C65.835 24.0059 67.2928 24.5796 68.1534 25.7154C68.9964 26.8277 69.2774 28.5431 68.9496 30.4399Z" fill="white"/>
<path d="M37.8918 76.8599C37.8935 77.0718 37.7788 77.2674 37.5932 77.3692L33.5126 79.6759C33.231 79.8339 32.8751 79.7344 32.7164 79.4534L24.0752 64.1616C23.9172 63.8782 24.0161 63.5205 24.2977 63.3595L28.3783 61.0587C28.4649 61.0078 28.5644 60.9814 28.6651 60.9826C28.719 60.982 28.7723 60.9896 28.8232 61.006C28.9731 61.0458 29.0995 61.1453 29.1745 61.2812L37.8157 76.573C37.8666 76.6597 37.8929 76.7592 37.8918 76.8599Z" fill="white"/>
<path d="M78.5743 49.0337C74.9211 53.9046 64.4124 67.1708 62.3867 68.1836C60.9055 68.9213 58.8506 69.2082 56.2454 69.5653C51.7492 70.18 45.6195 71.0231 38.2898 74.9455L31.2585 62.5107C33.6805 61.2555 35.9134 59.6648 37.8916 57.7861C40.1339 55.538 43.8866 53.1377 49.0444 54.4257C53.1894 55.4619 57.8788 54.6774 61.3036 54.1095L61.5729 54.0627C61.8083 53.9948 62.0554 54.1236 62.135 54.3554C62.4394 55.0053 62.2228 56.4045 61.1631 57.6573L61.0636 57.7569L61.0695 57.7627C60.8973 57.9571 60.7112 58.1391 60.5133 58.3072C56.6903 61.5857 50.5373 60.3211 50.4787 60.3094C50.162 60.2415 49.85 60.4435 49.7821 60.7602C49.7141 61.0769 49.9161 61.389 50.2329 61.4569C50.508 61.5154 57.0065 62.8561 61.2744 59.1971C61.5407 58.9705 61.7896 58.724 62.0179 58.4594L73.6039 46.8734C74.0722 46.3992 74.4937 45.9426 74.9036 45.4976C76.5838 43.6593 77.4502 42.8046 78.7792 43.472C79.3635 43.7261 79.792 44.2436 79.9325 44.8653C80.196 45.9718 79.6749 47.5701 78.5743 49.0337Z" fill="white"/>
</svg>
