<svg width="104" height="104" viewBox="0 0 104 104" fill="none" xmlns="http://www.w3.org/2000/svg">
<circle cx="52" cy="52" r="52" fill="#2DA7AD"/>
<path d="M52.0009 55.415L78.9141 44.2991C78.9442 44.2865 78.9769 44.2821 79.0058 44.2714V44.1257C79.0058 43.4318 78.4437 42.8697 77.7497 42.8697C77.5915 42.8697 77.4351 42.8992 77.2881 42.9576L76.4937 43.2716V37.3683C76.4937 36.6743 75.9316 36.1122 75.2376 36.1122C75.0555 36.1122 74.8753 36.1518 74.7101 36.2284C72.2458 37.3814 67.8075 39.3314 65.1893 39.7679C61.4212 40.3959 54.513 41.652 52.0009 47.9322C49.4888 41.652 42.5806 40.3959 38.8125 39.7679C36.1943 39.3283 31.7561 37.3814 29.2917 36.2278C28.6625 35.9364 27.9158 36.2108 27.6244 36.8401C27.5477 37.0053 27.5082 37.1855 27.5082 37.3676V43.271L26.7137 42.957C26.0688 42.702 25.339 43.0185 25.084 43.6635C25.0256 43.8111 24.9961 43.9681 24.9961 44.127V44.2727C25.0262 44.2834 25.0589 44.2878 25.0878 44.3003L52.0009 55.415Z" fill="white"/>
<path d="M79.1539 45.5146L52.0002 56.7285L24.8465 45.5146C24.2053 45.2502 23.4712 45.5554 23.2062 46.1967C23.1434 46.3486 23.1113 46.5113 23.1113 46.6758V47.0916C23.1113 47.6003 23.4178 48.0587 23.8876 48.2528L46.164 57.4539L30.2707 66.2223C29.9668 66.3894 29.8563 66.7718 30.0233 67.0752C30.1338 67.2761 30.3449 67.4005 30.5741 67.4005H36.9397C37.3448 67.4005 37.7435 67.3025 38.1021 67.1154L52.0002 59.8642L65.8983 67.1154C66.2569 67.3025 66.6557 67.4005 67.0607 67.4005H73.4263C73.773 67.4011 74.055 67.1204 74.0556 66.7737C74.0563 66.5445 73.9313 66.3328 73.7303 66.2223L57.8364 57.4539L80.1129 48.2528C80.5826 48.0587 80.8891 47.6003 80.8891 47.0916V46.6758C80.8891 45.9819 80.327 45.4198 79.6331 45.4198C79.4685 45.4198 79.3059 45.4518 79.1539 45.5146Z" fill="white"/>
</svg>
