<svg width="25" height="25" viewBox="0 0 25 25" fill="none" xmlns="http://www.w3.org/2000/svg">
<g clip-path="url(#clip0_282_597)">
<path d="M15.0127 12.3877C15.0127 13.6562 13.9844 14.6846 12.7158 14.6846C11.4473 14.6846 10.4189 13.6562 10.4189 12.3877C10.4189 11.1191 11.4473 10.0908 12.7158 10.0908C13.9844 10.0908 15.0127 11.1191 15.0127 12.3877Z" fill="#2DA7AD"/>
<path d="M18.0872 8.32391C17.9767 8.02472 17.8006 7.75391 17.5717 7.53162C17.3494 7.30273 17.0788 7.12659 16.7794 7.01617C16.5366 6.92187 16.1719 6.80963 15.5001 6.77905C14.7733 6.74591 14.5554 6.73877 12.7156 6.73877C10.8755 6.73877 10.6577 6.74573 9.93109 6.77887C9.25928 6.80963 8.89435 6.92187 8.65173 7.01617C8.35236 7.12659 8.08154 7.30273 7.85944 7.53162C7.63055 7.75391 7.45441 8.02454 7.34381 8.32391C7.24951 8.56671 7.13727 8.93164 7.10669 9.60345C7.07355 10.33 7.06641 10.5479 7.06641 12.3879C7.06641 14.2278 7.07355 14.4457 7.10669 15.1724C7.13727 15.8442 7.24951 16.209 7.34381 16.4518C7.45441 16.7512 7.63037 17.0218 7.85925 17.2441C8.08154 17.473 8.35217 17.6491 8.65155 17.7595C8.89435 17.854 9.25928 17.9662 9.93109 17.9968C10.6577 18.03 10.8754 18.0369 12.7154 18.0369C14.5556 18.0369 14.7735 18.03 15.4999 17.9968C16.1717 17.9662 16.5366 17.854 16.7794 17.7595C17.3804 17.5277 17.8553 17.0527 18.0872 16.4518C18.1815 16.209 18.2937 15.8442 18.3245 15.1724C18.3576 14.4457 18.3646 14.2278 18.3646 12.3879C18.3646 10.5479 18.3576 10.33 18.3245 9.60345C18.2939 8.93164 18.1816 8.56671 18.0872 8.32391ZM12.7156 15.9261C10.7613 15.9261 9.17706 14.342 9.17706 12.3878C9.17706 10.4335 10.7613 8.84943 12.7156 8.84943C14.6697 8.84943 16.2539 10.4335 16.2539 12.3878C16.2539 14.342 14.6697 15.9261 12.7156 15.9261ZM16.3938 9.53644C15.9371 9.53644 15.5669 9.1662 15.5669 8.70953C15.5669 8.25287 15.9371 7.88263 16.3938 7.88263C16.8505 7.88263 17.2207 8.25287 17.2207 8.70953C17.2205 9.1662 16.8505 9.53644 16.3938 9.53644Z" fill="#2DA7AD"/>
<path d="M12.7158 0.387695C6.08942 0.387695 0.71582 5.76129 0.71582 12.3877C0.71582 19.0141 6.08942 24.3877 12.7158 24.3877C19.3422 24.3877 24.7158 19.0141 24.7158 12.3877C24.7158 5.76129 19.3422 0.387695 12.7158 0.387695ZM19.5649 15.2286C19.5316 15.9621 19.4149 16.4629 19.2446 16.9012C18.8867 17.8268 18.155 18.5585 17.2294 18.9165C16.7912 19.0868 16.2902 19.2032 15.5569 19.2368C14.8221 19.2703 14.5873 19.2783 12.716 19.2783C10.8445 19.2783 10.6099 19.2703 9.87494 19.2368C9.1416 19.2032 8.64062 19.0868 8.20245 18.9165C7.74249 18.7435 7.32611 18.4723 6.98187 18.1216C6.63141 17.7776 6.36023 17.361 6.18719 16.9012C6.01691 16.4631 5.90027 15.9621 5.86694 15.2288C5.83307 14.4938 5.8252 14.259 5.8252 12.3877C5.8252 10.5164 5.83307 10.2816 5.86676 9.54681C5.90009 8.81329 6.01654 8.3125 6.18683 7.87415C6.35986 7.41437 6.63123 6.9978 6.98187 6.65375C7.32593 6.3031 7.74249 6.03192 8.20227 5.85889C8.64062 5.6886 9.14142 5.57214 9.87494 5.53864C10.6097 5.50513 10.8445 5.49707 12.7158 5.49707C14.5872 5.49707 14.8219 5.50513 15.5567 5.53882C16.2902 5.57214 16.791 5.6886 17.2294 5.8587C17.6891 6.03174 18.1057 6.3031 18.45 6.65375C18.8004 6.99799 19.0718 7.41437 19.2446 7.87415C19.4151 8.3125 19.5316 8.81329 19.5651 9.54681C19.5986 10.2816 19.6064 10.5164 19.6064 12.3877C19.6064 14.259 19.5986 14.4938 19.5649 15.2286Z" fill="#2DA7AD"/>
</g>
<defs>
<clipPath id="clip0_282_597">
<rect width="24" height="24" fill="white" transform="translate(0.71582 0.387695)"/>
</clipPath>
</defs>
</svg>
