<svg width="21" height="21" viewBox="0 0 21 21" fill="none" xmlns="http://www.w3.org/2000/svg">
<g clip-path="url(#clip0_282_620)">
<path fill-rule="evenodd" clip-rule="evenodd" d="M10.7158 20.5962C5.2018 20.5962 0.71582 16.1102 0.71582 10.5962C0.71582 5.08217 5.2018 0.596191 10.7158 0.596191C16.2298 0.596191 20.7158 5.08217 20.7158 10.5962C20.7158 16.1102 16.2298 20.5962 10.7158 20.5962ZM15.9017 14.1091C16.025 14.1091 16.1253 14.0088 16.1253 13.8855V7.60748L11.0374 11.6478C10.9433 11.7226 10.8295 11.76 10.7158 11.76C10.6021 11.76 10.4883 11.7226 10.3941 11.6478L5.30629 7.60748V13.8855C5.30629 14.0088 5.40664 14.1091 5.52992 14.1091H15.9017ZM15.122 7.08326L10.7158 10.5823L6.30961 7.08326H15.122ZM17.1598 7.30689V13.8856C17.1598 14.5793 16.5954 15.1437 15.9017 15.1437H5.52992C4.83617 15.1437 4.27184 14.5793 4.27184 13.8856V7.30689C4.27184 6.61318 4.83621 6.04881 5.52992 6.04881H15.9017C16.5954 6.04877 17.1598 6.61318 17.1598 7.30689Z" fill="#2DA7AD"/>
</g>
<defs>
<clipPath id="clip0_282_620">
<rect width="20" height="20" fill="white" transform="translate(0.71582 0.596191)"/>
</clipPath>
</defs>
</svg>
