<svg width="20" height="20" viewBox="0 0 20 20" fill="none" xmlns="http://www.w3.org/2000/svg">
<path d="M8.33317 16.6668H11.6665V15.8335H8.33317V16.6668ZM5.83317 19.1668C5.37484 19.1668 4.98261 19.0038 4.6565 18.6777C4.32984 18.351 4.1665 17.9585 4.1665 17.5002V2.50016C4.1665 2.04183 4.32984 1.64933 4.6565 1.32266C4.98261 0.996552 5.37484 0.833496 5.83317 0.833496H14.1665C14.6248 0.833496 15.0173 0.996552 15.344 1.32266C15.6701 1.64933 15.8332 2.04183 15.8332 2.50016V17.5002C15.8332 17.9585 15.6701 18.351 15.344 18.6777C15.0173 19.0038 14.6248 19.1668 14.1665 19.1668H5.83317ZM5.83317 13.3335H14.1665V5.00016H5.83317V13.3335Z" fill="#2DA7AD"/>
</svg>
