<svg width="33" height="18" viewBox="0 0 33 18" fill="none" xmlns="http://www.w3.org/2000/svg">
<path d="M16.4702 10.73L31.3759 4.57502C31.3926 4.56806 31.4107 4.56563 31.4267 4.55972V4.47904C31.4267 4.09479 31.1154 3.78356 30.7311 3.78356C30.6434 3.78356 30.5568 3.79991 30.4754 3.83225L30.0354 4.00612V0.737379C30.0354 0.353128 29.7241 0.0419026 29.3398 0.0419026C29.2389 0.0419026 29.1391 0.0638092 29.0476 0.106233C27.6827 0.744681 25.2246 1.82441 23.7745 2.06609C21.6876 2.41382 17.8615 3.1093 16.4702 6.58668C15.0789 3.1093 11.2528 2.41382 9.16585 2.06609C7.71576 1.82267 5.25767 0.744681 3.8928 0.105886C3.54428 -0.0554647 3.13072 0.0964976 2.96932 0.444931C2.92689 0.536386 2.90498 0.636187 2.90498 0.737031V4.00577L2.46498 3.8319C2.10776 3.69072 1.70358 3.86598 1.56237 4.22311C1.53002 4.30482 1.51367 4.39176 1.51367 4.47974V4.56041C1.53037 4.56632 1.54845 4.56876 1.56445 4.57571L16.4702 10.73Z" fill="#2DA7AD"/>
<path d="M31.5092 5.24825L16.4702 11.4575L1.43126 5.24825C1.07613 5.10185 0.669519 5.27085 0.522737 5.62589C0.487954 5.71005 0.470215 5.80011 0.470215 5.89122V6.12142C0.470215 6.40309 0.639954 6.65694 0.900128 6.76439L13.2379 11.8591L4.43543 16.7142C4.26708 16.8067 4.20587 17.0185 4.29839 17.1865C4.35961 17.2977 4.47648 17.3666 4.60343 17.3666H8.129C8.35334 17.3666 8.57421 17.3123 8.77282 17.2087L16.4702 13.1937L24.1676 17.2087C24.3662 17.3123 24.5871 17.3666 24.8114 17.3666H28.337C28.529 17.3669 28.6852 17.2115 28.6855 17.0195C28.6859 16.8926 28.6166 16.7754 28.5053 16.7142L19.7026 11.8591L32.0403 6.76439C32.3005 6.65694 32.4702 6.40309 32.4702 6.12142V5.89122C32.4702 5.50697 32.1589 5.19574 31.7746 5.19574C31.6834 5.19574 31.5933 5.21348 31.5092 5.24825Z" fill="#2DA7AD"/>
</svg>
