<svg width="21" height="21" viewBox="0 0 21 21" fill="none" xmlns="http://www.w3.org/2000/svg">
<g clip-path="url(#clip0_282_611)">
<path fill-rule="evenodd" clip-rule="evenodd" d="M10.7158 0.299316C16.2385 0.299316 20.7158 4.77643 20.7158 10.2993C20.7158 15.8222 16.2385 20.2993 10.7158 20.2993C5.19313 20.2993 0.71582 15.8223 0.71582 10.2993C0.71582 4.77631 5.19316 0.299316 10.7158 0.299316ZM16.1967 13.0874L14.3486 12.0205C14.1754 11.921 13.9698 11.8941 13.7768 11.9458C13.5838 11.9975 13.4192 12.1235 13.3189 12.2963L13.2461 12.4225C13.1578 12.5754 13.0381 12.7079 12.8949 12.8111C12.7517 12.9143 12.5882 12.986 12.4152 13.0214C12.2422 13.0567 12.0637 13.055 11.8914 13.0164C11.7192 12.9777 11.5571 12.9029 11.4158 12.7969C10.8116 12.3417 10.2404 11.8444 9.70629 11.3087C9.1705 10.7746 8.67317 10.2033 8.21801 9.599C8.11206 9.45781 8.03727 9.29575 7.99857 9.12353C7.95986 8.9513 7.95813 8.77282 7.99348 8.59988C8.02883 8.42693 8.10046 8.26345 8.20365 8.12023C8.30683 7.97701 8.43922 7.8573 8.59207 7.769L8.71816 7.69611C8.89098 7.5958 9.01704 7.43114 9.06879 7.23814C9.12053 7.04514 9.09375 6.8395 8.9943 6.66619L7.92727 4.81818C7.83769 4.66104 7.69427 4.54161 7.5235 4.48197C7.35273 4.42232 7.16614 4.42649 6.9982 4.49369L6.97516 4.50268C6.6191 4.6415 5.60242 5.016 5.34203 5.27643C5.29976 5.3187 5.26007 5.3635 5.2232 5.41057C4.5848 6.22615 4.905 7.55174 5.24211 8.42143C5.8627 10.0227 7.03945 11.563 8.24566 12.7691C9.45188 13.9752 10.9921 15.1523 12.5933 15.7728C13.1484 15.9878 13.7735 16.1582 14.3727 16.1582C14.8745 16.1582 15.3748 16.0363 15.7386 15.6727C15.9954 15.416 16.3738 14.3905 16.5126 14.0381L16.5216 14.0153C16.5888 13.8475 16.5929 13.661 16.5331 13.4904C16.4734 13.3198 16.3538 13.1766 16.1966 13.0874L16.1967 13.0874ZM10.5694 5.35865C10.5694 5.46225 10.6105 5.56161 10.6838 5.63487C10.757 5.70812 10.8564 5.74928 10.96 5.74928C12.1018 5.7494 13.1968 6.20304 14.0042 7.01041C14.8116 7.81779 15.2652 8.91279 15.2653 10.0546C15.2653 10.1582 15.3065 10.2575 15.3797 10.3308C15.453 10.4041 15.5523 10.4452 15.6559 10.4452C15.7595 10.4452 15.8589 10.4041 15.9322 10.3308C16.0054 10.2575 16.0466 10.1582 16.0466 10.0546C16.0465 8.70557 15.5106 7.41182 14.5566 6.45793C13.6027 5.50403 12.309 4.96812 10.96 4.96807C10.8564 4.96807 10.757 5.00922 10.6837 5.08248C10.6105 5.15573 10.5693 5.25509 10.5693 5.35869L10.5694 5.35865ZM10.5694 7.53936C10.5694 7.64296 10.6105 7.74231 10.6838 7.81557C10.757 7.88883 10.8564 7.92998 10.96 7.92998C11.5233 7.93063 12.0633 8.15469 12.4616 8.55299C12.8599 8.95129 13.0839 9.49132 13.0845 10.0546C13.0845 10.1582 13.1257 10.2575 13.1989 10.3308C13.2722 10.4041 13.3716 10.4452 13.4752 10.4452C13.5788 10.4452 13.6781 10.4041 13.7514 10.3308C13.8246 10.2575 13.8658 10.1582 13.8658 10.0546C13.8649 9.2842 13.5585 8.54561 13.0138 8.00085C12.469 7.45609 11.7304 7.14966 10.96 7.14877C10.9087 7.14876 10.8579 7.15886 10.8105 7.17849C10.7632 7.19812 10.7201 7.22688 10.6838 7.26315C10.6475 7.29942 10.6188 7.34248 10.5991 7.38987C10.5795 7.43726 10.5694 7.48806 10.5694 7.53936Z" fill="#2DA7AD"/>
</g>
<defs>
<clipPath id="clip0_282_611">
<rect width="20" height="20" fill="white" transform="translate(0.71582 0.299316)"/>
</clipPath>
</defs>
</svg>
