<svg width="21" height="25" viewBox="0 0 21 25" fill="none" xmlns="http://www.w3.org/2000/svg">
<path d="M15.0873 9.40058H15.0273C14.6027 9.40604 14.2381 9.09985 14.1702 8.68076C14.0704 8.07595 13.5573 7.62575 12.9445 7.60532C12.7982 7.60516 12.653 7.63128 12.5159 7.68244C12.114 7.83089 11.6631 7.67705 11.4359 7.31397C11.2161 6.92972 10.8072 6.69262 10.3645 6.69262C9.92171 6.69262 9.51287 6.92972 9.29305 7.31397C9.0658 7.67705 8.6149 7.83089 8.21305 7.68244C8.07596 7.63128 7.9308 7.60516 7.78448 7.60532C7.16213 7.62037 6.63676 8.07212 6.52876 8.68505C6.45896 9.10243 6.09486 9.40637 5.67162 9.40058H5.65876C4.71162 9.40058 4.37305 10.2575 4.37305 10.9902C4.37305 11.7229 4.71162 12.5798 5.65876 12.5798H5.7059C6.12915 12.574 6.49325 12.8779 6.56305 13.2953C6.6697 13.9021 7.18579 14.352 7.80162 14.375C8.1359 14.375 8.26448 14.2422 8.54305 14.2422C8.85565 14.2429 9.14574 14.4049 9.31019 14.6707C9.53001 15.0549 9.93885 15.292 10.3816 15.292C10.8244 15.292 11.2332 15.0549 11.453 14.6707C11.6772 14.3141 12.118 14.1595 12.5159 14.2979C12.653 14.3491 12.7982 14.3752 12.9445 14.375C13.5687 14.3689 14.0983 13.9153 14.2002 13.2996C14.2681 12.8805 14.6327 12.5743 15.0573 12.5798H15.0873C16.0259 12.5798 16.373 11.7614 16.373 10.9902C16.373 10.2189 16.0388 9.40058 15.0873 9.40058Z" fill="#2DA7AD"/>
<path d="M18.9447 22.9874C18.9447 23.4607 18.5609 23.8445 18.0875 23.8445H2.65897C1.94889 23.8445 1.37326 23.2689 1.37326 22.5588V22.1302C0.899869 22.1302 0.516113 22.514 0.516113 22.9874V23.8445C0.516113 24.3179 0.899869 24.7016 1.37326 24.7016H19.8018C20.0385 24.7016 20.2304 24.5098 20.2304 24.2731V22.5588C20.2304 22.3221 20.0385 22.1302 19.8018 22.1302H18.9447V22.9874Z" fill="#2DA7AD"/>
<path d="M10.926 5.12038L10.3775 4.56323L9.82031 5.1118L10.3732 5.66895L10.926 5.12038Z" fill="#2DA7AD"/>
<path d="M18.0876 22.9874V22.1302H2.23047V22.5588C2.23047 22.7955 2.42235 22.9874 2.65904 22.9874H18.0876Z" fill="#2DA7AD"/>
<path d="M9.82031 16.8603L10.3689 17.4174L10.926 16.8688L10.3732 16.3117L9.82031 16.8603Z" fill="#2DA7AD"/>
<path d="M2.65918 2.84938V19.131H18.0878V2.84938H2.65918ZM16.3735 6.27709C16.6102 6.27709 16.802 6.46891 16.802 6.70555C16.802 6.94218 16.6102 7.13401 16.3735 7.13401C16.1368 7.13401 15.9449 6.94218 15.9449 6.70555C15.9449 6.46891 16.1368 6.27709 16.3735 6.27709ZM14.2306 4.56323C14.4673 4.56323 14.6592 4.75506 14.6592 4.9917C14.6592 5.22833 14.4673 5.42016 14.2306 5.42016C13.9939 5.42016 13.802 5.22833 13.802 4.9917C13.802 4.75506 13.9939 4.56323 14.2306 4.56323ZM6.51632 4.56323C6.75302 4.56323 6.94489 4.75506 6.94489 4.9917C6.94489 5.22833 6.75302 5.42016 6.51632 5.42016C6.27963 5.42016 6.08775 5.22833 6.08775 4.9917C6.08775 4.75506 6.27963 4.56323 6.51632 4.56323ZM4.37347 6.27709C4.61016 6.27709 4.80204 6.46891 4.80204 6.70555C4.80204 6.94218 4.61016 7.13401 4.37347 7.13401C4.13677 7.13401 3.94489 6.94218 3.94489 6.70555C3.94489 6.46891 4.13677 6.27709 4.37347 6.27709ZM4.37347 15.7033C4.13677 15.7033 3.94489 15.5114 3.94489 15.2748C3.94489 15.0382 4.13677 14.8463 4.37347 14.8463C4.61016 14.8463 4.80204 15.0382 4.80204 15.2748C4.80204 15.5114 4.61016 15.7033 4.37347 15.7033ZM6.51632 17.4171C6.27963 17.4171 6.08775 17.2253 6.08775 16.9887C6.08775 16.752 6.27963 16.5602 6.51632 16.5602C6.75302 16.5602 6.94489 16.752 6.94489 16.9887C6.94489 17.2253 6.75302 17.4171 6.51632 17.4171ZM14.2306 17.4171C13.9939 17.4171 13.802 17.2253 13.802 16.9887C13.802 16.752 13.9939 16.5602 14.2306 16.5602C14.4673 16.5602 14.6592 16.752 14.6592 16.9887C14.6592 17.2253 14.4673 17.4171 14.2306 17.4171ZM16.3735 15.7033C16.1368 15.7033 15.9449 15.5114 15.9449 15.2748C15.9449 15.0382 16.1368 14.8463 16.3735 14.8463C16.6102 14.8463 16.802 15.0382 16.802 15.2748C16.802 15.5114 16.6102 15.7033 16.3735 15.7033ZM15.0878 13.4367H15.0278C14.8503 14.455 13.9785 15.2064 12.9449 15.232C12.6959 15.2335 12.4488 15.1884 12.2163 15.0991C12.2011 15.0877 12.1801 15.0877 12.1649 15.0991C11.9435 15.4675 11.6186 15.7625 11.2306 15.9475L11.5392 16.256C11.7028 16.4171 11.7949 16.637 11.7949 16.8665C11.7949 17.0961 11.7028 17.316 11.5392 17.4771L10.9949 18.0213C10.8336 18.1861 10.6127 18.2791 10.382 18.2791C10.1514 18.2791 9.93044 18.1861 9.76918 18.0213L9.21632 17.4771C9.05273 17.316 8.96061 17.0961 8.96061 16.8665C8.96061 16.637 9.05273 16.4171 9.21632 16.256L9.52489 15.9475C9.13669 15.7696 8.80896 15.4822 8.58204 15.1206C8.5674 15.1075 8.54525 15.1075 8.53061 15.1206C8.29735 15.2064 8.05061 15.25 7.80204 15.2491C6.77235 15.2341 5.89586 14.4958 5.70632 13.4838L5.65918 13.4367C4.39918 13.4367 3.51632 12.4298 3.51632 10.9902C3.51632 9.55054 4.39918 8.54365 5.65918 8.54365H5.70632C5.87515 7.51529 6.75969 6.75756 7.80204 6.74839C8.05105 6.74687 8.29816 6.79192 8.53061 6.88122C8.55069 6.88771 8.57251 6.87862 8.58204 6.85979C8.80667 6.4994 9.13127 6.2121 9.51632 6.03286L9.20775 5.72437C9.04416 5.5633 8.95204 5.34335 8.95204 5.11381C8.95204 4.88426 9.04416 4.66431 9.20775 4.50325L9.75204 3.9591C9.9133 3.79422 10.1342 3.70127 10.3649 3.70127C10.5956 3.70127 10.8165 3.79422 10.9778 3.9591L11.522 4.50325C11.6856 4.66431 11.7777 4.88426 11.7777 5.11381C11.7777 5.34335 11.6856 5.5633 11.522 5.72437L11.2135 6.03286C11.6017 6.21071 11.9294 6.49815 12.1563 6.85979C12.171 6.87289 12.1931 6.87289 12.2078 6.85979C12.441 6.77392 12.6877 6.73039 12.9363 6.73126C13.9654 6.74794 14.841 7.48547 15.032 8.49652L15.092 8.52652C16.3478 8.52652 17.2349 9.5334 17.2349 10.973C17.2349 12.4127 16.3735 13.4367 15.0878 13.4367Z" fill="#2DA7AD"/>
<path d="M1.37326 0.707062C0.899869 0.707062 0.516113 1.09072 0.516113 1.56399V21.5047C0.776547 21.3536 1.07218 21.2738 1.37326 21.2733H19.8018C20.0385 21.2733 20.2304 21.0815 20.2304 20.8448V1.13552C20.2304 0.898891 20.0385 0.707062 19.8018 0.707062H1.37326ZM18.9447 19.131C18.9447 19.6042 18.5609 19.9879 18.0875 19.9879H2.65897C2.18558 19.9879 1.80183 19.6042 1.80183 19.131V2.84938C1.80183 2.37611 2.18558 1.99245 2.65897 1.99245H18.0875C18.5609 1.99245 18.9447 2.37611 18.9447 2.84938V19.131Z" fill="#2DA7AD"/>
</svg>
