<svg width="19" height="23" viewBox="0 0 19 23" fill="none" xmlns="http://www.w3.org/2000/svg">
<path d="M11.5444 20.1401C11.5495 20.2859 11.611 20.424 11.7159 20.5254C11.8208 20.6268 11.961 20.6834 12.1069 20.6834C12.2528 20.6834 12.393 20.6268 12.498 20.5254C12.6029 20.424 12.6644 20.2859 12.6694 20.1401V19.2026H11.5444V20.1401Z" fill="#2DA7AD"/>
<path d="M11.5445 12.1206C11.5445 12.1206 11.5453 11.6476 11.5416 11.6251C12.2197 11.2814 12.7893 10.7565 13.187 10.1087C13.5847 9.46089 13.795 8.71552 13.7945 7.95542V2.57178C13.7945 2.31195 13.7044 2.06014 13.5396 1.85919C13.3749 1.65824 13.1456 1.52056 12.8907 1.46956L9.74448 0.464816C9.69511 0.453582 9.64385 0.453582 9.59448 0.464816L6.44823 1.46956C6.19338 1.52056 5.96408 1.65824 5.79931 1.85919C5.63454 2.06014 5.5445 2.31195 5.54448 2.57178V7.95542C5.54357 8.7165 5.75344 9.46297 6.15083 10.1121C6.54822 10.7613 7.11763 11.2878 7.79594 11.6332C7.79219 11.6557 7.79448 12.1206 7.79448 12.1206C5.85379 12.2624 4.03915 13.1349 2.71677 14.562C1.39439 15.9891 0.66274 17.8646 0.66948 19.8099V21.8269C0.67036 22.1249 0.789169 22.4105 0.999957 22.6212C1.21075 22.832 1.49638 22.9507 1.79448 22.9516H4.41948V19.9524C4.42285 19.8552 4.46383 19.7631 4.53379 19.6956C4.60375 19.628 4.69721 19.5902 4.79448 19.5902C4.89175 19.5902 4.98521 19.628 5.05517 19.6956C5.12513 19.7631 5.16611 19.8552 5.16948 19.9524V22.9516H9.29448V16.9531C9.29785 16.856 9.33883 16.7639 9.40879 16.6963C9.47875 16.6288 9.57221 16.591 9.66948 16.591C9.76675 16.591 9.86021 16.6288 9.93017 16.6963C10.0001 16.7639 10.0411 16.856 10.0445 16.9531V22.9516H14.1695V19.9524C14.1728 19.8552 14.2138 19.7631 14.2838 19.6956C14.3537 19.628 14.4472 19.5902 14.5445 19.5902C14.6417 19.5902 14.7352 19.628 14.8052 19.6956C14.8751 19.7631 14.9161 19.8552 14.9195 19.9524V22.9516H17.5445C17.8426 22.9508 18.1282 22.832 18.339 22.6212C18.5498 22.4105 18.6686 22.1249 18.6695 21.8269V19.8099C18.6762 17.8646 17.9446 15.9891 16.6222 14.562C15.2998 13.1348 13.4852 12.2624 11.5445 12.1206ZM6.29448 7.95542V5.33108H13.0445V7.95542C13.0445 12.2825 6.29448 12.3733 6.29448 7.95542ZM10.7945 12.0794V13.6277C10.7945 14.8345 8.54448 14.8231 8.54448 13.6277V12.0794H10.7945ZM9.65448 15.2923C9.0379 15.3804 7.52096 15.799 7.03799 16.2933C6.80756 16.5291 6.47977 16.693 6.27674 16.2961C6.27125 14.8768 6.76014 13.4999 7.65948 12.4018C7.69679 12.3607 7.74296 12.3287 7.79448 12.3081V13.6277C7.79448 15.8099 11.5445 15.7976 11.5445 13.6277V12.3193C12.9566 13.743 13.0407 16.0646 13.0445 16.1583C13.071 16.3783 12.6886 16.8282 12.271 16.2933C11.6031 15.682 10.2708 15.3803 9.65448 15.2923ZM13.4195 20.1398C13.4195 21.8425 10.7945 21.8503 10.7945 20.1398V18.8277C10.7948 18.7283 10.8344 18.6331 10.9046 18.5629C10.9749 18.4927 11.0701 18.4531 11.1695 18.4528H13.0445C13.1438 18.4531 13.2391 18.4927 13.3093 18.5629C13.3796 18.6331 13.4192 18.7283 13.4195 18.8277V20.1398Z" fill="#2DA7AD"/>
</svg>
