<svg width="21" height="20" viewBox="0 0 21 20" fill="none" xmlns="http://www.w3.org/2000/svg">
<path d="M10.9051 1.66669C6.30508 1.66669 2.58008 5.40002 2.58008 10C2.58008 14.6 6.30508 18.3334 10.9051 18.3334C15.5134 18.3334 19.2467 14.6 19.2467 10C19.2467 5.40002 15.5134 1.66669 10.9051 1.66669ZM10.9134 16.6667C7.23008 16.6667 4.24674 13.6834 4.24674 10C4.24674 6.31669 7.23008 3.33335 10.9134 3.33335C14.5967 3.33335 17.5801 6.31669 17.5801 10C17.5801 13.6834 14.5967 16.6667 10.9134 16.6667Z" fill="#2DA7AD"/>
<path d="M11.3301 5.83331H10.0801V10.8333L14.4551 13.4583L15.0801 12.4333L11.3301 10.2083V5.83331Z" fill="#2DA7AD"/>
</svg>
