<svg width="25" height="25" viewBox="0 0 25 25" fill="none" xmlns="http://www.w3.org/2000/svg">
<g clip-path="url(#clip0_282_601)">
<path d="M12.7158 0.387695C6.08942 0.387695 0.71582 5.76129 0.71582 12.3877C0.71582 19.0141 6.08942 24.3877 12.7158 24.3877C19.3422 24.3877 24.7158 19.0141 24.7158 12.3877C24.7158 5.76129 19.3422 0.387695 12.7158 0.387695ZM18.1949 9.74402C18.2002 9.86212 18.2028 9.98077 18.2028 10.1C18.2028 13.7396 15.4324 17.9365 10.366 17.9367H10.3662H10.366C8.81055 17.9367 7.3631 17.4808 6.14417 16.6995C6.35968 16.7249 6.57904 16.7375 6.80115 16.7375C8.09167 16.7375 9.2793 16.2974 10.2221 15.5585C9.01636 15.5362 7.99976 14.7399 7.64893 13.6454C7.81683 13.6777 7.9895 13.6953 8.16656 13.6953C8.41797 13.6953 8.6615 13.6614 8.89294 13.5982C7.63263 13.3459 6.68323 12.2321 6.68323 10.8983C6.68323 10.8859 6.68323 10.8747 6.68359 10.8632C7.05475 11.0695 7.47919 11.1937 7.93109 11.2076C7.19153 10.7141 6.70538 9.87054 6.70538 8.91492C6.70538 8.41028 6.8418 7.9375 7.07837 7.53046C8.43665 9.19708 10.4666 10.2932 12.7557 10.4083C12.7085 10.2065 12.6841 9.99634 12.6841 9.78027C12.6841 8.25977 13.9177 7.02618 15.4388 7.02618C16.2311 7.02618 16.9467 7.36108 17.4493 7.89648C18.0768 7.77271 18.666 7.54346 19.1983 7.22797C18.9923 7.87085 18.5558 8.41028 17.9871 8.7514C18.5443 8.68475 19.0753 8.53699 19.5687 8.31763C19.2001 8.87006 18.7327 9.35529 18.1949 9.74402Z" fill="#2DA7AD"/>
</g>
<defs>
<clipPath id="clip0_282_601">
<rect width="24" height="24" fill="white" transform="translate(0.71582 0.387695)"/>
</clipPath>
</defs>
</svg>
