<svg width="47" height="16" viewBox="0 0 47 16" fill="none" xmlns="http://www.w3.org/2000/svg">
<path d="M17.7188 0.263921L11.6089 14.8442H7.62281L4.61929 3.21292C4.59142 2.93914 4.49388 2.67708 4.33597 2.45171C4.17806 2.22634 3.96504 2.04518 3.71724 1.92551C2.53414 1.36043 1.28553 0.944223 0 0.686432L0.0929309 0.263921H6.5064C6.92534 0.264258 7.33036 0.414267 7.64844 0.686905C7.96652 0.959542 8.17671 1.33686 8.24111 1.75081L9.82961 10.1865L13.7525 0.263921H17.7176H17.7188ZM33.3312 10.0787C33.3486 6.23751 28.0106 6.0244 28.049 4.30456C28.0589 3.77919 28.5571 3.22408 29.6474 3.08407C30.9225 2.96242 32.2067 3.18715 33.3647 3.73458L34.0263 0.645555C32.8986 0.222517 31.7044 0.00391496 30.4999 0C26.7728 0 24.1497 1.98252 24.1273 4.81877C24.1026 6.91653 25.9996 8.08622 27.4295 8.78382C28.8978 9.49877 29.3897 9.95476 29.3835 10.5954C29.3736 11.5742 28.2113 12.0017 27.1272 12.0203C25.778 12.0494 24.444 11.732 23.2526 11.0984L22.5698 14.294C23.9073 14.8118 25.3299 15.0749 26.7641 15.0697C30.7292 15.0697 33.3164 13.1082 33.3312 10.0787ZM43.172 14.8392H46.66L43.6156 0.263921H40.394C40.0494 0.260074 39.7116 0.359836 39.4243 0.550284C39.1371 0.740732 38.9137 1.01308 38.7832 1.33201L33.1293 14.838H37.0869L37.8725 12.6609H42.7049L43.172 14.8392ZM38.9591 9.67473L40.9416 4.20171L42.0841 9.67473H38.9591ZM23.0989 0.257719L19.9863 14.8442H16.2146L19.3296 0.263921L23.0989 0.257719Z" fill="#1A2ADF"/>
</svg>
