<svg width="190" height="52" viewBox="0 0 190 52" fill="none" xmlns="http://www.w3.org/2000/svg">
<rect width="190" height="52" rx="26" fill="#508ABB" fill-opacity="0.1"/>
<path d="M33.7948 28.58C32.2148 28.58 30.8348 28.34 29.4348 27.84C29.1748 27.76 28.9548 27.64 26.8948 26.76L25.8348 28.98L28.9948 30.26C29.7348 30.48 30.1948 31.14 30.1948 31.88C30.1948 32.7 29.4948 33.42 28.6548 33.42H22.5548C20.8548 33.42 19.4948 32.04 19.4948 30.34V26.7H17.0748V30.34C17.0748 33.38 19.5348 35.84 22.5548 35.84H28.6548C30.8148 35.84 32.6148 34.06 32.6148 31.88C32.6148 31.52 32.5148 31.14 32.2948 30.84C32.8348 30.94 33.2748 31 33.7948 31C34.4748 31 35.0348 30.44 35.0348 29.76C35.0348 29.08 34.4748 28.58 33.7948 28.58ZM23.5148 37.12C22.7348 37.12 22.0948 37.74 22.0948 38.52C22.0948 39.3 22.7348 39.94 23.5148 39.94C24.2948 39.94 24.9348 39.3 24.9348 38.52C24.9348 37.74 24.2948 37.12 23.5148 37.12ZM27.2348 37.12C26.4548 37.12 25.8148 37.74 25.8148 38.52C25.8148 39.3 26.4548 39.94 27.2348 39.94C28.0148 39.94 28.6548 39.3 28.6548 38.52C28.6548 37.74 28.0148 37.12 27.2348 37.12ZM46.513 31V28.58H44.953C44.413 28.58 44.093 28.2 44.093 27.62V27.04C44.093 24.64 43.053 23.24 42.033 22.5C39.953 20.88 36.913 20.96 34.593 21.96L35.473 24.14C37.013 23.62 39.173 23.32 40.593 24.4C41.333 24.96 41.733 25.88 41.733 27.18V27.64C41.733 28.06 41.973 28.4 42.253 28.58H33.773C33.113 28.58 32.533 29.12 32.533 29.78C32.533 30.46 33.113 31 33.773 31H46.513ZM57.7372 31V28.58H57.3772C56.8372 28.58 56.5172 28.2 56.5172 27.62V27.08C56.5172 24.7 55.4772 23.28 54.4572 22.54C52.2572 20.9 49.3372 21.08 46.7972 22.04L47.7772 24.24C49.4372 23.66 51.5772 23.34 53.0172 24.44C53.7572 25 54.1572 25.92 54.1572 27.22V27.64C54.1572 28.06 54.3972 28.4 54.6772 28.58H46.0972C45.4372 28.58 44.8572 29.12 44.8572 29.78C44.8572 30.46 45.4372 31 46.0972 31H57.7372ZM51.7772 32.6C50.9972 32.6 50.3572 33.24 50.3572 34C50.3572 34.78 50.9972 35.42 51.7772 35.42C52.5572 35.42 53.1972 34.78 53.1972 34C53.1972 33.24 52.5572 32.6 51.7772 32.6ZM60.3367 31H62.7567V17H60.3367V31ZM71.997 28.58H71.397C70.477 28.58 69.717 27.82 69.717 26.9V21.34H67.317V30.52C67.317 32.5 65.977 33.12 64.217 33.48L65.097 35.76C67.697 35.28 69.497 33.76 69.677 31.08L69.697 30.42C70.137 30.76 70.737 31 71.397 31H71.997C72.657 31 73.197 30.48 73.197 29.8C73.197 29.1 72.657 28.58 71.997 28.58ZM71.917 31H72.977C74.777 31 76.237 29.52 76.237 27.72V17.04H73.817V27.72C73.817 28.2 73.437 28.58 72.957 28.58H71.917C71.237 28.58 70.697 29.12 70.697 29.8C70.697 30.46 71.237 31 71.917 31ZM79.6336 31H82.0536V17H79.6336V31ZM103.272 16.72C102.512 16.72 101.872 17.34 101.872 18.12C101.872 18.9 102.512 19.54 103.272 19.54C104.072 19.54 104.712 18.9 104.712 18.12C104.712 17.34 104.072 16.72 103.272 16.72ZM106.872 21.3H102.452C99.7117 21.3 97.5317 23.5 97.5317 26.1C97.5317 27.04 97.9117 27.98 98.5117 28.58H93.4117C92.2717 28.58 91.3117 27.66 91.3117 26.48V24H88.9117V26.48C88.9117 28.98 90.9517 31 93.4117 31H104.652C105.932 31 106.872 30.06 106.872 28.78V21.3ZM103.792 28.58H102.352C101.072 28.58 99.9117 27.52 99.9117 26.2C99.9117 24.9 101.052 23.72 102.452 23.72L104.452 23.7V27.92C104.452 28.28 104.152 28.58 103.792 28.58ZM115.552 28.58H114.952C114.032 28.58 113.272 27.82 113.272 26.9V21.34H110.872V30.52C110.872 32.5 109.532 33.12 107.772 33.48L108.652 35.76C111.252 35.28 113.052 33.76 113.232 31.08L113.252 30.42C113.692 30.76 114.292 31 114.952 31H115.552C116.212 31 116.752 30.48 116.752 29.8C116.752 29.1 116.212 28.58 115.552 28.58ZM131.692 28.58V26.52C131.692 25.58 131.452 24.64 130.972 23.84C129.792 21.8 127.192 20.86 124.832 21.6L119.872 23.1V21.34H117.472V28.58H115.312V31H133.832V28.58H131.692ZM128.852 28.58H119.872V25.6L125.532 23.88C126.892 23.5 128.272 23.96 128.892 25.04C129.172 25.48 129.292 26 129.292 26.52V28.1C129.292 28.38 129.092 28.58 128.852 28.58ZM133.477 28.58H134.117C134.857 28.58 135.217 28.14 135.217 27.48V21.3H140.017C142.737 21.3 144.777 23.38 144.777 26.12V26.48C144.717 28.98 142.577 30.98 140.057 31C138.757 31.02 137.577 30.44 136.797 29.58C136.197 30.46 135.197 31 134.117 31H133.457C132.797 30.98 132.257 30.44 132.257 29.78C132.277 29.12 132.797 28.58 133.477 28.58ZM140.037 28.58C141.277 28.58 142.357 27.6 142.377 26.36V26.02C142.377 24.68 141.317 23.7 139.957 23.7H137.637V26.44C137.677 27.72 138.737 28.58 140.037 28.58Z" fill="#508ABB"/>
<g clip-path="url(#clip0_348_319)">
<path d="M154.213 22.0945H173.362C173.479 22.0945 173.574 22.1898 173.574 22.3072V22.9455C173.574 23.063 173.479 23.1583 173.362 23.1583H154.213C154.095 23.1583 154 23.063 154 22.9455V22.3072C154 22.1898 154.095 22.0945 154.213 22.0945Z" fill="#508ABB"/>
<path d="M156.128 25.0732H158.255V31.0306H156.128V25.0732Z" fill="#508ABB"/>
<path d="M162.936 25.0732H165.064V31.0306H162.936V25.0732Z" fill="#508ABB"/>
<path d="M169.745 25.0732H171.872V31.0306H169.745V25.0732Z" fill="#508ABB"/>
<path d="M159.24 32.52H155.143L155.598 31.3072C155.661 31.141 155.82 31.0308 155.998 31.0306H158.385C158.563 31.0308 158.722 31.141 158.785 31.3072L159.24 32.52Z" fill="#508ABB"/>
<path d="M159.24 23.5838L158.785 24.7966C158.722 24.9627 158.563 25.0729 158.385 25.0732H155.998C155.82 25.073 155.661 24.9627 155.598 24.7966L155.143 23.5838H159.24Z" fill="#508ABB"/>
<path d="M166.049 32.52H161.951L162.406 31.3072C162.469 31.141 162.629 31.0308 162.806 31.0306H165.194C165.372 31.0308 165.531 31.141 165.594 31.3072L166.049 32.52Z" fill="#508ABB"/>
<path d="M166.049 23.5838L165.594 24.7966C165.531 24.9627 165.372 25.0729 165.194 25.0732H162.806C162.629 25.073 162.469 24.9627 162.406 24.7966L161.951 23.5838H166.049Z" fill="#508ABB"/>
<path d="M172.857 32.52H168.76L169.215 31.3072C169.278 31.141 169.437 31.0308 169.615 31.0306H172.002C172.18 31.0308 172.339 31.141 172.402 31.3072L172.857 32.52Z" fill="#508ABB"/>
<path d="M172.857 23.5838L172.402 24.7966C172.339 24.9627 172.18 25.0729 172.002 25.0732H169.615C169.437 25.073 169.278 24.9627 169.215 24.7966L168.76 23.5838H172.857Z" fill="#508ABB"/>
<path d="M173.362 32.9455H154.638C154.521 32.9455 154.426 33.0408 154.426 33.1583V33.7966H173.574V33.1583C173.574 33.0408 173.479 32.9455 173.362 32.9455Z" fill="#508ABB"/>
<path d="M173.574 33.7966H154.426L154 34.8604H174L173.574 33.7966Z" fill="#508ABB"/>
<path d="M174 34.8604H154V35.7114C154 35.8289 154.095 35.9242 154.213 35.9242H173.787C173.905 35.9242 174 35.8289 174 35.7114V34.8604Z" fill="#508ABB"/>
<path d="M173.023 21.6689H154.557L163.428 16.2032C163.704 16.0325 164.052 16.0334 164.328 16.2053L173.023 21.6689Z" fill="#508ABB"/>
</g>
<defs>
<clipPath id="clip0_348_319">
<rect width="20" height="20" fill="white" transform="translate(154 16)"/>
</clipPath>
</defs>
</svg>
